<?xml version="1.0" standalone="no"?><!DOCTYPE svg PUBLIC "-//W3C//DTD SVG 1.1//EN" "http://www.w3.org/Graphics/SVG/1.1/DTD/svg11.dtd"><svg t="1655186560838" class="icon" viewBox="0 0 1024 1024" version="1.1" xmlns="http://www.w3.org/2000/svg" p-id="1616" xmlns:xlink="http://www.w3.org/1999/xlink" width="200" height="200"><defs><style type="text/css"></style></defs><path d="M466.432 707.072h90.965333v161.621333h-90.965333zM134.485333 868.693333h91.136l93.184-161.621333h-90.965333L134.485333 868.693333zM795.477333 707.072h-90.965333l93.184 161.621333h91.136l-93.354667-161.621333z" fill="#D8E3F0" p-id="1617"></path><path d="M466.432 707.072h90.965333v51.2h-90.965333zM198.314667 758.272h90.965333l29.525333-51.2h-90.965333l-29.525333 51.2zM795.477333 707.072h-90.965333l29.525333 51.2h90.965334l-29.525334-51.2z" fill="#C3CFDE" p-id="1618"></path><path d="M113.834667 638.805333h796.501333v68.266667H113.834667z" fill="#EDF4FF" p-id="1619"></path><path d="M159.232 229.205333h705.365333v409.6H159.232z" fill="#FFF6E6" p-id="1620"></path><path d="M864.768 229.205333h-39.082667c-54.613333 137.386667-185.344 305.493333-498.346666 305.493334a1038.165333 1038.165333 0 0 1-168.106667-11.776v115.882666h705.536z" fill="#FFEBCC" p-id="1621"></path><path d="M602.965333 257.706667H421.034667l11.264-56.832h159.402666l11.264 56.832zM557.568 200.874667h-91.136v-11.434667A45.738667 45.738667 0 0 1 512 143.872a45.738667 45.738667 0 0 1 45.568 45.568z" fill="#EDF4FF" p-id="1622"></path><path d="M352.768 479.573333H443.733333v90.965334h-90.965333zM534.698667 388.608h90.965333v182.101333h-90.965333z" fill="#69BAF9" p-id="1623"></path><path d="M443.733333 434.005333h90.965334v136.533334H443.733333zM625.834667 343.04H716.8v227.498667h-90.965333z" fill="#F6716F" p-id="1624"></path><path d="M830.634667 263.338667m-90.965334 0a90.965333 90.965333 0 1 0 181.930667 0 90.965333 90.965333 0 1 0-181.930667 0Z" fill="#79DEB4" p-id="1625"></path><path d="M773.632 553.472H733.866667V343.04a17.066667 17.066667 0 0 0-17.066667-17.066667h-90.965333a17.066667 17.066667 0 0 0-17.066667 17.066667v28.501333h-74.069333a17.066667 17.066667 0 0 0-17.066667 17.066667v28.330667H443.733333a17.066667 17.066667 0 0 0-17.066666 17.066666v28.501334h-73.898667a17.066667 17.066667 0 0 0-17.066667 17.066666v73.898667h-85.333333a17.066667 17.066667 0 0 0 0 34.133333h523.264a17.066667 17.066667 0 0 0 0-34.133333z m-221.866667-147.797333h57.002667v147.797333h-57.002667zM460.8 451.072h56.832v102.4H460.8z m-90.965333 45.568H426.666667v56.832h-56.832z m273.066666 56.832V360.106667H699.733333v193.365333zM250.368 371.541333h102.4a17.066667 17.066667 0 0 0 0-34.133333h-102.4a17.066667 17.066667 0 1 0 0 34.133333zM250.368 428.373333h45.397333a17.066667 17.066667 0 0 0 0-34.133333h-45.397333a17.066667 17.066667 0 0 0 0 34.133333zM812.032 293.034667a17.066667 17.066667 0 0 0 12.117333 4.949333 17.066667 17.066667 0 0 0 11.946667-4.949333l35.157333-34.986667a17.066667 17.066667 0 1 0-24.234666-24.234667l-22.869334 23.04-4.949333-5.461333a17.066667 17.066667 0 0 0-24.234667 0 17.066667 17.066667 0 0 0 0 24.064z" fill="#3D3D63" p-id="1626"></path><path d="M922.965333 851.626667h-24.405333l-73.557333-127.488h85.333333a17.066667 17.066667 0 0 0 17.066667-17.066667v-68.266667a17.066667 17.066667 0 0 0-17.066667-17.066666h-28.501333V358.4a108.032 108.032 0 1 0-146.432-146.432h-124.074667l-2.901333-14.677333a17.066667 17.066667 0 0 0-17.066667-13.653334h-17.066667a62.122667 62.122667 0 0 0-123.904 0h-17.066666a17.066667 17.066667 0 0 0-17.066667 13.653334l-2.901333 14.677333H159.232a17.066667 17.066667 0 0 0-17.066667 17.066667v392.533333H113.834667a17.066667 17.066667 0 0 0-17.066667 17.066667v68.266666a17.066667 17.066667 0 0 0 17.066667 17.066667h84.48L124.757333 851.626667H101.034667a17.066667 17.066667 0 0 0 0 34.133333h159.402666a17.066667 17.066667 0 1 0 0-34.133333H256l73.557333-127.488h120.661334v127.488h-17.066667a17.066667 17.066667 0 1 0 0 34.133333h159.402667a17.066667 17.066667 0 0 0 0-34.133333h-17.066667v-127.488h119.466667L768 851.626667h-4.608a17.066667 17.066667 0 0 0 0 34.133333h159.402667a17.066667 17.066667 0 0 0 0-34.133333z m-92.330666-662.186667a74.069333 74.069333 0 1 1-74.069334 73.898667 73.898667 73.898667 0 0 1 74.069334-73.898667zM512 160.938667a28.501333 28.501333 0 0 1 27.818667 22.869333h-55.637334A28.501333 28.501333 0 0 1 512 160.938667z m65.706667 57.002666l4.437333 22.698667h-140.288l4.437333-22.698667z m-401.408 28.330667h229.546666l-1.536 8.021333a17.066667 17.066667 0 0 0 17.066667 20.48h181.589333a17.066667 17.066667 0 0 0 17.066667-20.48l-1.536-8.021333h105.813333a113.322667 113.322667 0 0 0-1.536 17.066667 108.202667 108.202667 0 0 0 108.202667 108.202666 113.322667 113.322667 0 0 0 17.066667-1.536v251.733334H176.298667z m-45.397334 409.6h762.197334v34.133333H130.901333z m85.333334 195.754667h-51.2l73.557333-127.488h51.2z m324.266666 0h-57.002666v-127.488h57.002666zM733.866667 724.138667h51.2l73.557333 127.488h-51.2z" fill="#3D3D63" p-id="1627"></path></svg>